<svg width="200" height="200" viewBox="0 0 200 200" fill="none" xmlns="http://www.w3.org/2000/svg">
<path fill-rule="evenodd" clip-rule="evenodd" d="M100 0H0V100V200H100L0 100L100 0ZM165.533 24.4638C165.53 24.5 90 100 90 100C90 100 165.533 175.5 165.53 175.539C186.647 157.204 200 130.162 200 100C200 69.84 186.648 42.7985 165.533 24.4638Z" fill="white"/>
<path fill-rule="evenodd" clip-rule="evenodd" d="M0 100L100 0C125.068 0 147.983 9.22426 165.533 24.4638C165.53 24.5 90 100 90 100C90 100 165.533 175.5 165.53 175.539C147.979 190.777 125.067 200 100 200L0 100Z" fill="white" fill-opacity="0.2"/>
</svg>
