<svg height="100%" width="100%" version="1.1" viewBox="0 -25 380 400" xmlns="http://www.w3.org/2000/svg"><g id="head" transform="translate(82.000000, 0.000000)"><g id="Head/Front/Short-2" stroke="none" stroke-width="1" fill="none" fill-rule="evenodd"><g id="Head" transform="translate(54.000000, 31.000000)" fill="rgb(178, 139, 103)"><path d="M8.26227388,34.4901268 C3.65436435,29.0813759 0.535634794,22.4528771 1.05677633,15.0254539 C2.55833022,-6.37502057 32.3485306,-1.66718886 38.1433414,9.13393292 C43.9381521,19.9350547 43.249578,47.3329958 35.7603014,49.2634576 C32.7735882,50.033323 26.4110012,48.1474609 19.935372,44.244306 L24,73 L0,73 L8.26227388,34.4901268 Z"></path></g><path d="M60.4181384,70.3075201 C57.4059021,56.9064588 48.8245327,47.7714043 50.1351137,41.781703 C51.0088343,37.7885688 53.3375617,35.3053788 57.1212959,34.3321331 C59.0782074,26.4155009 65.3896485,23.0482486 76.0556193,24.2303763 C92.0545754,26.0035679 101.819448,32.6477587 97.6024819,47.2678779 C93.7260987,47.2678779 89.0464758,45.8659867 82.57553,48.2678779 C80.5223249,49.0299883 79.0538125,51.3933595 78.1699927,55.3579915 L75.2457978,55.3579915 C72.4077436,50.6530572 69.6094038,48.9241222 66.8507787,50.1711866 C64.0921535,51.418251 63.4650732,54.4473753 64.9695377,59.2585597 L63.529076,70.3075201 L60.4181384,70.3075201 Z" id="Hair" fill="rgb(25, 24, 71)"></path></g></g><g id="bottom" transform="translate(0.000000, 187.000000)"><g id="Bottom/Sitting/Skinny-Jeans-1" stroke="none" stroke-width="1" fill="none" fill-rule="evenodd"><g id="Objects/Seat/Cube" transform="translate(10.000000, 42.000000)"><g id="Seat" transform="translate(55.000000, 0.000000)"><polygon id="Seat-Stuff" fill="#C5CFD6" points="27.6226415 0 104.877193 0 115 124 0 124"></polygon><polygon id="Seat-Stuff" fill-opacity="0.1" fill="#000000" points="27.6226415 0 51.3828011 0 65.6037736 124 0 124"></polygon></g></g><path d="M257.953294,20.7561262 C266.190093,15.8101469 280.009488,22.164715 280,29.2384154 C279.971611,50.4029106 260.656682,150.1511 259.648224,156.456711 C258.639766,162.762321 247.83665,164.42787 247.20755,156.477375 C246.206544,143.826795 244.3468,100.033121 246.20755,79.7626522 C246.975628,71.3954284 247.802807,63.4267637 248.617148,56.3175946 C238.481902,74.6206031 222.807229,100.825998 201.593128,134.933778 L190.076573,129.672175 C199.120166,99.8760987 206.535776,78.8408618 212.323403,66.5664641 C222.233227,45.5497154 231.525307,27.551672 235.436043,21.2120072 C241.587634,11.2397104 252.295462,14.7191925 257.953294,20.7561262 Z" id="Skin" fill="rgb(178, 139, 103)"></path><path d="M208.819223,123.340112 L213.936922,21.8299349 C217.625361,4.27739957 248.84365,12.4235349 248.830812,21.8299349 C248.801666,43.1853748 235.973522,116.956762 235.964839,123.319261 L208.819223,123.340112 Z" id="LegLower" fill="#1F28CF" transform="translate(228.825019, 67.419630) rotate(20.000000) translate(-228.825019, -67.419630) "></path><g id="Accessories/Shoe/Flat-Sneaker" transform="translate(215.500000, 133.000000) rotate(30.000000) translate(-215.500000, -133.000000) translate(185.000000, 113.000000)" fill="#E4E4E4"><path d="M2.67813181,25.4019242 C1.55937727,28.3884109 1,30.6229931 1,32.1056708 C1,33.908957 1.3004142,36.5404001 1.90124261,40 C3.99318117,40 22.7937852,40 58.3030548,40 C59.768738,35.1545073 58.9226607,32.5385816 55.7648228,32.1522232 C52.606985,31.7658647 49.9837155,31.4170139 47.8950143,31.1056708 L21.6799926,19.4188835 C21.1755635,19.1940064 20.584344,19.4206282 20.359467,19.9250573 C20.35562,19.9336867 20.3518954,19.9423702 20.3482945,19.9511052 L18.6632131,24.038695 C15.7398812,25.4026522 13.3643706,26.0846307 11.5366811,26.0846307 C10.0517269,26.0846307 8.00099246,25.4849054 5.38447792,24.2854549 L5.38448339,24.285443 C4.38038273,23.8251478 3.19325534,24.2659892 2.73296014,25.2700899 C2.71312074,25.3133681 2.69483298,25.3573409 2.67813181,25.4019242 Z" id="shoe"></path></g><g id="Accessories/Shoe/Flat-Sneaker" transform="translate(242.000000, 126.000000)" fill="#E4E4E4"><path d="M2.67813181,25.4019242 C1.55937727,28.3884109 1,30.6229931 1,32.1056708 C1,33.908957 1.3004142,36.5404001 1.90124261,40 C3.99318117,40 22.7937852,40 58.3030548,40 C59.768738,35.1545073 58.9226607,32.5385816 55.7648228,32.1522232 C52.606985,31.7658647 49.9837155,31.4170139 47.8950143,31.1056708 L21.6799926,19.4188835 C21.1755635,19.1940064 20.584344,19.4206282 20.359467,19.9250573 C20.35562,19.9336867 20.3518954,19.9423702 20.3482945,19.9511052 L18.6632131,24.038695 C15.7398812,25.4026522 13.3643706,26.0846307 11.5366811,26.0846307 C10.0517269,26.0846307 8.00099246,25.4849054 5.38447792,24.2854549 L5.38448339,24.285443 C4.38038273,23.8251478 3.19325534,24.2659892 2.73296014,25.2700899 C2.71312074,25.3133681 2.69483298,25.3573409 2.67813181,25.4019242 Z" id="shoe"></path></g><path d="M282.770373,36.4330278 C282.770373,63 270.1536,124.970293 270.145616,130.820112 L243,130.840963 C246.973277,75.5454811 248.382172,47.5998928 247.226683,47.0041979 C245.49345,46.1106556 176.175838,53.9250306 155.386358,53.9250306 C125.407825,53.9250306 113.006307,35.0203971 112,-4.40536496e-13 L171.386358,-4.40536496e-13 C183.477954,1.29386693 246.548825,14.0152568 269.972097,18.3884129 C280,20.2606358 282.770373,29.1145109 282.770373,36.4330278 Z" id="Leg-and-Butt" fill="#2B44FF"></path></g></g><g id="torso" transform="translate(22.000000, 82.000000)"><g id="Body/Turtle-Neck" stroke="none" stroke-width="1" fill="none" fill-rule="evenodd"><path d="M199.493124,92.4603344 L227.821028,120.095357 C236.063404,123.611168 242.816857,127.493333 248.081387,131.741853 C249.265301,133.169925 250.554184,135.906184 244.983927,134.681747 C239.413671,133.45731 233.49953,132.419902 232.45261,134.23139 C231.405691,136.042878 234.490525,138.818722 232.555688,141.189494 C231.265796,142.770009 226.92779,137.742701 219.54167,126.10757 L190.084396,108.74029 L199.493124,92.4603344 Z M60.9697919,67.4496834 L82.8671837,67.5318631 C66.1894326,121.56567 57.3363474,149.856914 56.3079281,152.405597 C53.9939846,158.140133 58.8906002,166.873732 60.9845874,171.567103 C54.1645409,174.61887 54.8912241,163.316929 46.2879189,167.319492 C38.4352209,170.972846 32.4616931,177.59248 23.3890352,171.994371 C22.2736052,171.306117 21.0512757,168.714714 24.0045784,166.68967 C31.3623323,161.644547 41.9653015,152.814672 43.3979297,149.908251 C45.3515741,145.944826 51.2088615,118.458637 60.9697919,67.4496834 Z" id="Skin" fill="rgb(178, 139, 103)"></path><path d="M122.768272,9.7139848 L131.253224,7.48281413 C149.019938,54.2642227 221.602897,80.8616426 227.451896,98.4190631 C229.596879,104.857833 225.154909,108.596168 227.774893,110.385298 L217.29519,119.561394 C215.205566,117.515062 211.513381,121.915723 202.815928,119.824345 C194.118475,117.732967 127.737533,66.5128914 122.768272,9.7139848 Z" id="Clothes-Back" fill="#DB2721" transform="translate(175.413267, 63.943241) rotate(5.000000) translate(-175.413267, -63.943241) "></path><path d="M142.240708,11.7336597 C141.243756,75.4830742 178.095832,91.7445602 169.887262,117.318245 C163.108761,138.436573 98.2273311,161.138686 87,140.43774 C82.4553197,132.058262 80.3933796,121.923875 80.1594269,110.905608 C77.2899563,119.370535 75.0205237,126.657823 73.3511268,132.767479 C70.4711839,143.30749 59.3062598,144.982871 59.3062598,149.043262 L44.5966299,144.982871 C45.5943495,139.466662 38.6598745,136.780597 40.5191881,124.456905 C48.8500046,69.239525 71.2334081,29.2141817 107.669398,4.38087468 L108.046347,-1.0097438 C108.200449,-3.21350145 110.111872,-4.87507585 112.315629,-4.72097411 L139.249859,-2.83754931 C141.453616,-2.68344757 143.115191,-0.772024866 142.961089,1.43173278 L142.240708,11.7336597 Z" id="Clothes-Front" fill="#FF4133"></path></g></g></svg>